<svg xmlns="http://www.w3.org/2000/svg" viewBox="0 0 1400 512" width="1400" height="512">
  <title>Steedly | استیدلی</title>
  <rect x="16" y="16" width="480" height="480" rx="112" fill="#0F766E"/>
  <path fill="#FFFFFF" d="M286 70L318 136C354 152 378 188 390 236C402 284 406 336 404 432L300 432C300 372 288 330 264 304C248 318 224 332 198 340C176 346 156 346 140 340C120 333 108 318 112 300C115 288 122 278 132 268L202 176C218 154 240 138 266 128Z"/>
  <path fill="none" stroke="#0F766E" stroke-width="9" stroke-linecap="round" d="M318 150C348 170 364 206 370 250C375 290 376 330 374 400"/>
  <path fill="#0F766E" d="M208 204C216 192 232 188 244 194C236 204 222 208 208 204Z"/>
  <path fill="#0F766E" d="M125 312a7 7 0 1 0 14 0a7 7 0 1 0 -14 0Z"/>
  <path fill="none" stroke="#F2B544" stroke-width="20" stroke-linecap="round" stroke-linejoin="round" d="M60 432L176 432L198 384L222 470L248 402L266 432L452 432"/>
  <text x="570" y="286" font-family="Vazirmatn, 'Segoe UI', Roboto, Arial, sans-serif" font-size="196" font-weight="800" fill="#0B2E2C" letter-spacing="-4">Steedly</text>
  <text x="574" y="408" font-family="Vazirmatn, Tahoma, Arial, sans-serif" font-size="92" font-weight="700" fill="#0F766E">استیدلی</text>
  <text x="920" y="404" font-family="Vazirmatn, Tahoma, Arial, sans-serif" font-size="46" font-weight="500" fill="#5B6B69">سلامت و مراقبت اسب</text>
</svg>
